<?xml version="1.0" encoding="UTF-8" standalone="no"?>
<!-- Created with Inkscape (http://www.inkscape.org/) -->

<svg
   xmlns:dc="http://purl.org/dc/elements/1.1/"
   xmlns:cc="http://creativecommons.org/ns#"
   xmlns:rdf="http://www.w3.org/1999/02/22-rdf-syntax-ns#"
   xmlns:svg="http://www.w3.org/2000/svg"
   xmlns="http://www.w3.org/2000/svg"
   xmlns:xlink="http://www.w3.org/1999/xlink"
   xmlns:sodipodi="http://sodipodi.sourceforge.net/DTD/sodipodi-0.dtd"
   xmlns:inkscape="http://www.inkscape.org/namespaces/inkscape"
   width="540"
   height="159.96268"
   id="svg5802"
   version="1.1"
   inkscape:version="0.48.0 r9654"
   sodipodi:docname="logotype.svg">
  <defs
     id="defs5804">
    <linearGradient
       id="linearGradient5341-3-59-2-0-6">
      <stop
         style="stop-color:#286da3;stop-opacity:1;"
         offset="0"
         id="stop5343-5-1-3-2-5" />
      <stop
         style="stop-color:#50b7d1;stop-opacity:1;"
         offset="1"
         id="stop5345-9-5-3-2-6" />
    </linearGradient>
    <linearGradient
       y2="323.16327"
       x2="-482.9313"
       y1="795.78345"
       x1="-152.53302"
       gradientTransform="matrix(0.93512567,0,0,0.93512567,1470.7848,3229.1412)"
       gradientUnits="userSpaceOnUse"
       id="linearGradient3036"
       xlink:href="#linearGradient5341-3-59-2-0-6"
       inkscape:collect="always" />
    <linearGradient
       inkscape:collect="always"
       xlink:href="#linearGradient5341-3-59-2-0-6"
       id="linearGradient3009"
       gradientUnits="userSpaceOnUse"
       gradientTransform="matrix(0.93512567,0,0,0.93512567,1470.7848,3229.1412)"
       x1="-152.53302"
       y1="795.78345"
       x2="-482.9313"
       y2="323.16327" />
  </defs>
  <sodipodi:namedview
     id="base"
     pagecolor="#ffffff"
     bordercolor="#666666"
     borderopacity="1.0"
     inkscape:pageopacity="0.0"
     inkscape:pageshadow="2"
     inkscape:zoom="0.7"
     inkscape:cx="-39.88039"
     inkscape:cy="37.838798"
     inkscape:document-units="px"
     inkscape:current-layer="g5406-0-2"
     showgrid="false"
     inkscape:window-width="1440"
     inkscape:window-height="852"
     inkscape:window-x="0"
     inkscape:window-y="0"
     inkscape:window-maximized="0"
     fit-margin-top="20"
     fit-margin-left="20"
     fit-margin-right="20"
     fit-margin-bottom="20" />
  <metadata
     id="metadata5807">
    <rdf:RDF>
      <cc:Work
         rdf:about="">
        <dc:format>image/svg+xml</dc:format>
        <dc:type
           rdf:resource="http://purl.org/dc/dcmitype/StillImage" />
        <dc:title />
      </cc:Work>
    </rdf:RDF>
  </metadata>
  <g
     inkscape:label="Layer 1"
     inkscape:groupmode="layer"
     id="layer1"
     transform="translate(-65.714305,-344.03379)">
    <g
       id="g5406-0-2"
       transform="matrix(0.23013525,0,0,0.23013525,-122.53637,-433.28155)">
      <g
         id="g3002"
         transform="matrix(1.1758767,0,0,1.1758767,-159.15178,-701.01301)">
        <flowRoot
           xml:space="preserve"
           id="flowRoot5324-8-3-0-2"
           style="font-size:40px;font-style:normal;font-weight:normal;line-height:125%;letter-spacing:0px;word-spacing:0px;fill:#999999;fill-opacity:1;stroke:none;font-family:Sans"
           transform="matrix(12.977939,0,0,12.977939,2270.0454,-1832.3363)"><flowRegion
             id="flowRegion5326-8-19-3-4"><rect
               id="rect5328-2-7-4-5"
               width="840.4469"
               height="456.58896"
               x="-70.710678"
               y="407.88486"
               style="fill:#999999" /></flowRegion><flowPara
             id="flowPara5330-5-9-2-8"
             style="font-style:normal;font-variant:normal;font-weight:normal;font-stretch:normal;letter-spacing:-0.0709548px;fill:#b3b3b3;stroke:none;font-family:Cantarell;-inkscape-font-specification:Cantarell">erese</flowPara></flowRoot>        <path
           id="rect3810-0-2-3-6-3"
           d="m 942.74577,3542.5178 c 11.8509,58.9929 32.474,95.1094 102.72713,202.7878 17.9939,22.872 36.2629,45.6255 54.7286,68.3155 18.7562,22.0373 37.278,43.3769 55.4905,63.9981 18.2123,20.6217 34.8828,38.8084 50.1572,54.6016 0.7698,-21.9575 2.512,-47.0475 1.3968,-74.5375 -0.6147,-15.1538 -0.3824,-26.4908 -3.6824,-55.2365 -3.8295,-36.3422 -6.9273,-45.7069 -12.4441,-67.4266 l 71.9979,-23.9993 6.476,88.2514 c 2.708,60.0727 -0.7661,123.1387 -4.3173,177.7726 l 41.3956,0 c 18.1748,0 32.761,-14.5862 32.761,-32.7609 l 0,-368.8783 c 0,-18.1747 -14.5862,-32.8879 -32.761,-32.8879 l -363.92593,0 z m -37.8402,120.1235 0,281.6427 c 0,18.1747 14.7132,32.7609 32.8879,32.7609 l 222.08883,0 c -29.5256,-29.9687 -60.3864,-62.3591 -92.9496,-97.7749 -77.49903,-84.028 -128.29463,-150.4824 -162.02713,-216.6287 z"
           style="fill:url(#linearGradient3009);fill-opacity:1;fill-rule:nonzero;stroke:none"
           inkscape:connector-curvature="0" />
      </g>
    </g>
  </g>
</svg>
